<svg xmlns="http://www.w3.org/2000/svg" width="556.154" height="46.019" viewBox="0 0 556.154 46.019">
  <g id="Gruppe_4049" data-name="Gruppe 4049" transform="translate(-98 -38)">
    <g id="Gruppe_288" data-name="Gruppe 288" transform="translate(-37.33 -81.668)">
      <g id="Gruppe_287" data-name="Gruppe 287">
        <path id="Pfad_682" data-name="Pfad 682" d="M313.721,137.751V164.06l-6.075,1.627v-9.28a17.053,17.053,0,0,1,.143-2.488,7.154,7.154,0,0,1-4.879,1.722c-7.367,0-10.285-5.931-10.285-12.437,0-4.353.718-7.08,2.488-9.376a9.888,9.888,0,0,1,7.653-3.875c2.536,0,5.215,1.148,5.741,2.488a4.2,4.2,0,0,1,.478-1.914h5.31A33.905,33.905,0,0,0,313.721,137.751Zm-6.075-.766a5.216,5.216,0,0,0-3.684-1.674c-3.874,0-4.3,4.066-4.3,7.08,0,3.157,0,7.988,4.3,7.988a5.309,5.309,0,0,0,3.684-1.865Z" fill="#39c"/>
        <path id="Pfad_683" data-name="Pfad 683" d="M336.535,155.737a5.606,5.606,0,0,1-1.913-2.392,9.147,9.147,0,0,1-6.458,2.344c-3.444,0-6.41-1.626-7.224-3.97a14.665,14.665,0,0,1-.526-4.88v-15.69l6.315-1.2v15.738a9.664,9.664,0,0,0,.526,4.019,2.57,2.57,0,0,0,2.248,1.148,4.743,4.743,0,0,0,3.97-2.344V131.293L339.6,130v18.7a7.123,7.123,0,0,0,1.483,4.449Z" fill="#39c"/>
        <path id="Pfad_684" data-name="Pfad 684" d="M363.942,152.2a10,10,0,0,1-8.084,3.4c-6.65,0-11-4.974-11-12.676s4.4-12.82,11-12.82a10.267,10.267,0,0,1,8.323,3.683c1.961,2.3,2.822,4.975,2.822,8.945C367,146.935,366.047,149.8,363.942,152.2Zm-5.214-16.073a3.507,3.507,0,0,0-6.075,1.2,17.445,17.445,0,0,0-.67,5.453,17.31,17.31,0,0,0,.813,6.171,3.543,3.543,0,0,0,3.253,2.009c2.775,0,3.97-2.487,3.97-8.275C360.019,139.377,359.589,137.224,358.728,136.124Z" fill="#39c"/>
        <path id="Pfad_685" data-name="Pfad 685" d="M395.368,155.067h-5.884l-2.2-8.419c-.527-1.961-1.1-4.3-1.388-5.932l-.383-2.439a30.917,30.917,0,0,1-.574,3.157c-.478,2.1-1.53,6.314-2.1,8.611l-1.244,5.022h-5.98l-6.7-24.061,6.363-.718,2.008,9.424c.575,2.535,1.245,6.649,1.388,7.606a85.609,85.609,0,0,1,1.77-8.515l2.3-8.228h6.027l1.962,8.084c.956,4.066,1.674,7.846,1.817,8.659.144-1.052.67-4.88,1.34-7.989l1.865-8.754h6.6Z" fill="#39c"/>
        <path id="Pfad_686" data-name="Pfad 686" d="M422.535,156.311a6.848,6.848,0,0,1-3.444-2.966,11.953,11.953,0,0,1-1.483,1.292,8.466,8.466,0,0,1-4.928,1.339c-5.453,0-8.418-2.774-8.418-7.654,0-5.74,3.97-8.419,11.767-8.419.479,0,.909,0,1.435.048v-1.005c0-2.726-.526-3.635-2.87-3.635-2.057,0-4.449,1-7.08,2.774l-2.727-4.592a23.648,23.648,0,0,1,3.971-2.009,16.571,16.571,0,0,1,6.7-1.435c4.114,0,6.936,1.531,7.893,4.257a11.347,11.347,0,0,1,.431,4.4l-.144,8.228c-.048,2.679.144,3.827,2.3,5.454Zm-5.454-11.959c-4.448,0-5.979.813-5.979,3.731a2.905,2.905,0,0,0,2.822,3.205,4.645,4.645,0,0,0,3.349-1.674l.1-5.262Z" fill="#39c"/>
        <path id="Pfad_687" data-name="Pfad 687" d="M445.4,155.067a4.394,4.394,0,0,1-.383-1.435,8.215,8.215,0,0,1-5.644,2.057c-6.219,0-10.141-4.831-10.141-12.437,0-7.654,4.257-12.916,10.476-12.916a6.6,6.6,0,0,1,4.353,1.387,29.726,29.726,0,0,1-.191-3.635v-8.42l6.362,1v25.449c0,6.027.478,7.988.909,8.945Zm-1.435-18.034a5.349,5.349,0,0,0-3.492-1.579c-2.87,0-4.114,2.392-4.114,7.845,0,5.262,1.1,6.985,4.449,6.985a4.585,4.585,0,0,0,3.157-1.579Z" fill="#39c"/>
        <path id="Pfad_688" data-name="Pfad 688" d="M460.367,127.8a3.951,3.951,0,0,1-3.923-3.971,4,4,0,0,1,4.018-3.97,3.91,3.91,0,0,1,3.875,3.97A3.961,3.961,0,0,1,460.367,127.8Zm-3.206,27.266V131.006l6.41-1v25.066Z" fill="#39c"/>
        <path id="Pfad_689" data-name="Pfad 689" d="M478.256,155.833a21.771,21.771,0,0,1-9.9-2.823l2.3-4.688c1.961,1.2,5.357,2.775,8.132,2.775a3,3,0,0,0,3.252-2.775c0-1.674-1.2-2.535-3.778-3.013l-2.871-.527a8.65,8.65,0,0,1-4.5-2.487,7.425,7.425,0,0,1-1.387-4.4c0-4.784,3.78-7.989,9.472-7.989a18.383,18.383,0,0,1,8.754,2.3l-2.1,4.305a12.946,12.946,0,0,0-6.027-1.77c-1.866,0-3.109.956-3.109,2.392,0,1.243.813,1.913,3.061,2.487l2.966.765c3.014.766,4.018,1.675,4.879,2.775a6.481,6.481,0,0,1,1.34,4.162C488.732,152.389,484.522,155.833,478.256,155.833Z" fill="#39c"/>
        <path id="Pfad_690" data-name="Pfad 690" d="M521.065,156.072a5.473,5.473,0,0,1-3.205-3.444,8.323,8.323,0,0,1-6.793,3.157c-4.784,0-7.75-2.44-7.75-7.032,0-5.549,4.449-8.515,12.2-8.515.575,0,1.053,0,1.675.048v-1.579c0-2.822-.383-4.735-3.731-4.735a13.231,13.231,0,0,0-7.367,2.726l-2.009-3.157c2.344-1.339,5.4-3.157,10.045-3.157,3.492,0,6.028,1.291,6.937,3.827a10.944,10.944,0,0,1,.478,4.209c0,1.722-.191,5.406-.191,8.9,0,3.3.1,4.64,1.961,5.788ZM515.659,143.2c-3.3,0-5.31.622-6.267,1.722a4.625,4.625,0,0,0-1.243,3.492c0,2.631,1.339,4.162,3.779,4.162a5.966,5.966,0,0,0,5.022-3.157l.144-6.124C516.425,143.252,516.042,143.2,515.659,143.2Z" fill="#39c"/>
        <path id="Pfad_691" data-name="Pfad 691" d="M543.3,155.067V138.9c0-2.153-.191-2.918-.765-3.684a2.967,2.967,0,0,0-2.44-.957c-1.722,0-4.3,1.34-5.932,3.062v17.747h-4.353V137.224a13.088,13.088,0,0,0-.908-5.692l4.161-1.148a7.6,7.6,0,0,1,.814,3.683,20.641,20.641,0,0,1,3.109-2.344,8.882,8.882,0,0,1,4.449-1.2,5.993,5.993,0,0,1,5.644,3.4,7.517,7.517,0,0,1,.575,3.013v18.13Z" fill="#39c"/>
        <path id="Pfad_692" data-name="Pfad 692" d="M572.1,156.072a5.478,5.478,0,0,1-3.205-3.444,8.323,8.323,0,0,1-6.793,3.157c-4.783,0-7.749-2.44-7.749-7.032,0-5.549,4.449-8.515,12.2-8.515.574,0,1.053,0,1.674.048v-1.579c0-2.822-.382-4.735-3.731-4.735a13.237,13.237,0,0,0-7.367,2.726l-2.009-3.157c2.344-1.339,5.406-3.157,10.046-3.157,3.492,0,6.027,1.291,6.936,3.827a10.924,10.924,0,0,1,.478,4.209c0,1.722-.191,5.406-.191,8.9,0,3.3.1,4.64,1.961,5.788ZM566.694,143.2c-3.3,0-5.31.622-6.267,1.722a4.621,4.621,0,0,0-1.244,3.492c0,2.631,1.34,4.162,3.78,4.162a5.967,5.967,0,0,0,5.022-3.157l.144-6.124C567.459,143.252,567.076,143.2,566.694,143.2Z" fill="#39c"/>
        <path id="Pfad_693" data-name="Pfad 693" d="M589.891,134.211h-4.736v14.446c0,2.966.718,3.875,3.109,3.875a5.282,5.282,0,0,0,2.249-.478l.526,2.678a9.546,9.546,0,0,1-4.353,1.005,6.838,6.838,0,0,1-4.21-1.292c-.956-.861-1.626-1.482-1.626-4.783V134.211h-2.87V131.1h2.87a52.023,52.023,0,0,1,.287-6.123l4.544-1.052c-.191,1.722-.43,4.736-.43,7.175h5.836Z" fill="#39c"/>
        <path id="Pfad_694" data-name="Pfad 694" d="M605.053,155.737c-6.41,0-10.381-4.879-10.381-12.677,0-7.749,3.971-12.628,10.285-12.628,7.08,0,10.524,5.644,10.524,12.867C615.481,150.9,611.415,155.737,605.053,155.737Zm-.1-21.909c-3.827,0-5.4,2.727-5.4,8.754,0,7.319,1.865,9.759,5.6,9.759,3.349,0,5.406-2.584,5.406-8.85C610.554,136.076,608.4,133.828,604.957,133.828Z" fill="#39c"/>
        <path id="Pfad_695" data-name="Pfad 695" d="M647.767,155.067V137.894c0-2.727-.86-3.683-2.87-3.683-2.2,0-3.779,1.435-5.6,3.253v17.6h-4.306V137.99c0-2.679-.765-3.684-2.965-3.684-1.627,0-3.445.814-5.5,2.775v17.986h-4.353v-17.6c0-3.4-.191-4.306-.861-5.98l4.114-1a6.779,6.779,0,0,1,.814,3.349,9.78,9.78,0,0,1,6.744-3.4,6.187,6.187,0,0,1,5.693,3.779c2.392-2.536,4.879-3.779,7.319-3.779,3.731,0,6.123,2.344,6.123,6.744v17.891Z" fill="#39c"/>
        <path id="Pfad_696" data-name="Pfad 696" d="M662.736,126.892a3.1,3.1,0,0,1-3.061-3.157,3.134,3.134,0,1,1,6.266,0A3.2,3.2,0,0,1,662.736,126.892Zm-2.248,28.175V131.245l4.544-.718v24.54Z" fill="#39c"/>
        <path id="Pfad_697" data-name="Pfad 697" d="M676.894,144.017v.574a9.02,9.02,0,0,0,1,4.784,6.248,6.248,0,0,0,5.5,2.822,8.526,8.526,0,0,0,5.884-2.3l1.674,2.631a12.237,12.237,0,0,1-8.276,3.061c-6.649,0-10.715-4.831-10.715-12.676,0-4.162.813-6.841,2.87-9.28a8.932,8.932,0,0,1,7.223-3.3,8.649,8.649,0,0,1,6.506,2.583c2.105,2.153,2.87,4.832,2.918,10.333v.765Zm8.515-8.658a4.306,4.306,0,0,0-3.444-1.675c-3.349,0-5.023,2.727-5.023,7.08h9.949A8.758,8.758,0,0,0,685.409,135.359Z" fill="#39c"/>
      </g>
    </g>
    <g id="Gruppe_290" data-name="Gruppe 290" transform="translate(-37.33 -81.668)">
      <path id="Pfad_698" data-name="Pfad 698" d="M258.269,130.7l.092,23.468c-1.234.02-2.368.038-3.38.052l-.1-23.4c1.076-.04,2.2-.076,3.383-.12" fill="#39c"/>
      <path id="Pfad_699" data-name="Pfad 699" d="M244.667,131.267c.8-.02,5.282-.166,12.184-.392l.091,23.364c-2.6.027-4.159.044-4.373.04a11.653,11.653,0,0,1-5.058-1.156c-1.06-.6-8.7-4.151-8.7-4.151s2.013,2.479,1.616,3.6-3.312,2.236-5.554,1.52a71.329,71.329,0,0,0-16.169-3.584c-7.144-.554-14.486-.605-15.824-.651s-3.073-.222-3.669,1.759-2.389,2.428-5.188,2.689-9.859.138-9.859.138-7.694-.125-11.537-.039-13.836.642-23.721-3.777A27.81,27.81,0,0,1,135.33,136.94l13.775-2.108L230.91,137.8s3.443-2.26,5.49-3.886,4.111-2.556,8.267-2.643" fill="#39c"/>
      <path id="Pfad_700" data-name="Pfad 700" d="M264.981,130.54l.1,23.565q-1.653.022-3.137.055l-.092-23.515c1.009-.029,2.053-.067,3.13-.105" fill="#39c"/>
      <path id="Pfad_701" data-name="Pfad 701" d="M271.948,130.367l.091,23.686c-1.159.01-2.293.028-3.367.034l-.1-23.592c1.09-.038,2.22-.083,3.371-.128" fill="#39c"/>
      <path id="Pfad_702" data-name="Pfad 702" d="M278.57,130.54l.1,23.565c-1.1.015-2.15.032-3.137.055l-.092-23.515c1.009-.029,2.052-.067,3.129-.105" fill="#39c"/>
      <path id="Pfad_703" data-name="Pfad 703" d="M285.538,130.367l.091,23.686c-1.16.01-2.294.028-3.368.034l-.1-23.592c1.09-.038,2.22-.083,3.372-.128" fill="#39c"/>
    </g>
  </g>
</svg>
