<?xml version="1.0" encoding="utf-8"?>
<!-- Generator: Adobe Illustrator 16.0.0, SVG Export Plug-In . SVG Version: 6.00 Build 0)  -->
<!DOCTYPE svg PUBLIC "-//W3C//DTD SVG 1.1//EN" "http://www.w3.org/Graphics/SVG/1.1/DTD/svg11.dtd">
<svg version="1.1" id="Ebene_1" xmlns="http://www.w3.org/2000/svg" xmlns:xlink="http://www.w3.org/1999/xlink" x="0px" y="0px"
	 width="34.016px" height="34.016px" viewBox="-5.008 -5.008 34.016 34.016" enable-background="new -5.008 -5.008 34.016 34.016"
	 xml:space="preserve">
<title>check</title>
<g>
	<polygon fill="#656565" points="-2.667,13.914 1.496,9.752 7.551,15.806 22.926,0.432 27.088,4.593 7.551,24.131 	"/>
	<path fill="#FFFFFF" d="M22.926,2.553l2.041,2.041L7.551,22.01l-8.096-8.096l2.041-2.041l6.055,6.054L22.926,2.553 M22.926-1.689
		l-2.121,2.121L7.551,13.685L3.617,9.751L1.496,7.631l-2.121,2.121l-2.041,2.041l-2.122,2.121l2.122,2.121l8.096,8.096l2.121,2.121
		l2.122-2.121L27.088,6.714l2.122-2.122l-2.122-2.121l-2.041-2.041L22.926-1.689L22.926-1.689z"/>
</g>
</svg>
